<svg xmlns="http://www.w3.org/2000/svg" xmlns:xlink="http://www.w3.org/1999/xlink" width="1200" height="340" viewBox="0 0 1200 340" role="img">
<defs>
<style>

  .wordmark {
    font-family: "Helvetica Neue", Arial, sans-serif;
    font-size: 110px;
    font-weight: 820;
    letter-spacing: 0;
    fill: #34113F;
  }
  .wordmark-dark {
    font-family: "Helvetica Neue", Arial, sans-serif;
    font-size: 110px;
    font-weight: 820;
    letter-spacing: 0;
    fill: #F7FFF6;
  }
  .small-label {
    font-family: "Helvetica Neue", Arial, sans-serif;
    font-size: 25px;
    font-weight: 700;
    letter-spacing: 0;
    fill: #34113F;
  }
  .body {
    font-family: "Helvetica Neue", Arial, sans-serif;
    font-size: 21px;
    font-weight: 400;
    letter-spacing: 0;
    fill: #202320;
  }
  .caption {
    font-family: "Helvetica Neue", Arial, sans-serif;
    font-size: 15px;
    font-weight: 700;
    letter-spacing: 0;
    fill: #34113F;
  }
  .thin {
    fill: none;
    stroke-linecap: round;
    stroke-linejoin: round;
  }
  .motion-copy {
    opacity: 1;
  }
  .motion-static {
    opacity: 0;
  }
  @media (prefers-reduced-motion: reduce) {
    .motion-copy {
      opacity: 0;
    }
    .motion-static {
      opacity: 1;
    }
  }

</style>
</defs>


<title>UX in Science logo with simplified scientific team and atomic orbit</title>
<desc>Primary logo lockup showing UX in Science text beside a simplified scientific team with atomic orbit paths.</desc>
<text class="wordmark" x="54" y="211">UX in Science</text>

<g transform="translate(790 42) scale(0.82)">
  <ellipse class="thin" cx="220" cy="156" rx="196" ry="70" transform="rotate(-22 220 156)" stroke="#00A7E1" stroke-width="11" opacity="0.92"/>
  <ellipse class="thin" cx="220" cy="156" rx="152" ry="53" transform="rotate(24 220 156)" stroke="#4CB944" stroke-width="7" opacity="0.92"/>
  <circle cx="384" cy="77" r="14" fill="#E3B505"/>
  <circle cx="66" cy="209" r="14" fill="#4CB944"/>

  <path class="thin" d="M151 173 C165 117 204 94 220 94 C236 94 275 117 289 173" stroke="#34113F" stroke-width="10"/>
  <circle cx="220" cy="65" r="23" fill="none" stroke="#34113F" stroke-width="8"/>

  <path class="thin" d="M80 195 C94 142 130 124 146 124 C164 124 196 144 206 195" stroke="#4CB944" stroke-width="9"/>
  <circle cx="146" cy="100" r="21" fill="none" stroke="#4CB944" stroke-width="7"/>

  <path class="thin" d="M234 195 C246 144 279 124 298 124 C317 124 350 144 362 195" stroke="#E3B505" stroke-width="9"/>
  <circle cx="298" cy="100" r="21" fill="none" stroke="#E3B505" stroke-width="7"/>

  <circle cx="188" cy="213" r="8" fill="#4CB944"/>
  <circle cx="220" cy="204" r="8" fill="#E3B505"/>
  <circle cx="252" cy="213" r="8" fill="#00A7E1"/>

</g>


</svg>
