<svg xmlns="http://www.w3.org/2000/svg" viewBox="0 0 64 64">
  <title>UX in Science</title>
  <rect width="64" height="64" rx="14" fill="#F7FFF6"/>
  <g fill="none" stroke-linecap="round" stroke-linejoin="round">
    <ellipse cx="32" cy="34" rx="28" ry="11" transform="rotate(-22 32 34)" stroke="#00A7E1" stroke-width="2.5"/>
    <ellipse cx="32" cy="34" rx="23" ry="8" transform="rotate(24 32 34)" stroke="#4CB944" stroke-width="2"/>
    <g stroke="#34113F" stroke-width="2.5">
      <circle cx="32" cy="19" r="4"/>
      <path d="M22 36c2-8 7-12 10-12s8 4 10 12"/>
    </g>
    <g stroke="#4CB944" stroke-width="2.5">
      <circle cx="21" cy="25" r="3.5"/>
      <path d="M12 40c2-7 6-10 9-10s7 3 9 10"/>
    </g>
    <g stroke="#E3B505" stroke-width="2.5">
      <circle cx="43" cy="25" r="3.5"/>
      <path d="M34 40c2-7 6-10 9-10s7 3 9 10"/>
    </g>
  </g>
  <circle cx="55" cy="23" r="2.5" fill="#E3B505"/>
  <circle cx="10" cy="43" r="2.5" fill="#4CB944"/>
</svg>
